<svg width="16" height="16" viewBox="0 0 16 16" fill="none" xmlns="http://www.w3.org/2000/svg">
<path d="M7.33268 3.33409H3.99935C3.64573 3.33409 3.30659 3.47457 3.05654 3.72462C2.80649 3.97467 2.66602 4.3138 2.66602 4.66743V12.0008C2.66602 12.3544 2.80649 12.6935 3.05654 12.9436C3.30659 13.1936 3.64573 13.3341 3.99935 13.3341H11.3327C11.6863 13.3341 12.0254 13.1936 12.2755 12.9436C12.5255 12.6935 12.666 12.3544 12.666 12.0008V8.66743M11.7233 2.39143C11.8463 2.26408 11.9935 2.1625 12.1561 2.09262C12.3188 2.02275 12.4938 1.98596 12.6708 1.98443C12.8479 1.98289 13.0234 2.01662 13.1873 2.08366C13.3511 2.1507 13.5 2.24971 13.6252 2.3749C13.7504 2.50009 13.8494 2.64896 13.9164 2.81282C13.9835 2.97668 14.0172 3.15226 14.0157 3.32929C14.0141 3.50633 13.9774 3.68129 13.9075 3.84397C13.8376 4.00664 13.736 4.15376 13.6087 4.27676L7.88468 10.0008H5.99935V8.11543L11.7233 2.39143Z" stroke="#3F3A3A" stroke-width="1.5" stroke-linecap="round" stroke-linejoin="round"/>
</svg>
