<svg width="36" height="36" viewBox="0 0 36 36" fill="none" xmlns="http://www.w3.org/2000/svg">
<circle cx="18" cy="18" r="18" fill="black"/>
<path d="M18.0254 22.0183C18.0254 22.0183 19.3521 21.9125 19.3521 23.3453L20.6788 22.0183C20.6788 22.0183 19.3521 22.1431 19.3521 20.6914L18.0254 22.0183Z" fill="white"/>
<path d="M6.08008 16.3642V11.7563C6.08008 11.5668 6.23328 11.4135 6.42281 11.4135H8.39076C8.58029 11.4135 8.73349 11.5668 8.73349 11.7563V16.3358C8.73349 16.5412 8.56766 16.707 8.36233 16.707H6.42281C6.23328 16.707 6.08008 16.5538 6.08008 16.3642Z" fill="white"/>
<path d="M14.041 14.0459V11.4125H16.6944V14.0664H14.0615C14.0505 14.0664 14.041 14.0569 14.041 14.0459Z" fill="white"/>
<path d="M11.3867 14.0459V11.7127C11.3867 11.5468 11.521 11.4125 11.6868 11.4125H14.0401V14.0664H11.4073C11.3962 14.0664 11.3867 14.0569 11.3867 14.0459Z" fill="white"/>
<path d="M19.3496 11.7869V13.7157C19.3496 13.91 19.1917 14.0679 18.9974 14.0679H16.6962V11.4141H18.9769C19.1822 11.4141 19.3496 11.5815 19.3496 11.7869Z" fill="white"/>
<path d="M6.08008 22.018V24.6719H8.7335V22.018H6.08008Z" fill="white"/>
<path d="M21.9707 13.6882V11.7468C21.9707 11.5541 22.1271 11.3992 22.3182 11.3992H23.378C24.0666 11.3992 24.6257 11.9585 24.6257 12.6472V14.0547H22.3371C22.135 14.0547 21.9723 13.8904 21.9723 13.6898L21.9707 13.6882Z" fill="white"/>
<path d="M21.9703 24.6703V22.0164H24.6237V23.3844C24.6237 24.0953 24.0473 24.6719 23.3365 24.6719H21.9688L21.9703 24.6703Z" fill="white"/>
<path d="M19.3145 16.3405V14.4181C19.3145 14.2159 19.4787 14.0516 19.6809 14.0516H21.603C21.8052 14.0516 21.9694 14.2159 21.9694 14.4181V16.3121C21.9694 16.5301 21.7926 16.707 21.5746 16.707H19.6809C19.4787 16.707 19.3145 16.5427 19.3145 16.3405Z" fill="white"/>
<path d="M11.3863 16.3627V14.0516H14.0398V16.677C14.0398 16.6928 14.0271 16.707 14.0098 16.707H11.7291C11.5395 16.707 11.3848 16.5538 11.3848 16.3627H11.3863Z" fill="white"/>
<path d="M14.041 24.6523V21.9985H16.3422C16.5365 21.9985 16.6944 22.1564 16.6944 22.3507V24.2874C16.6944 24.4896 16.5302 24.6523 16.3296 24.6523H14.041Z" fill="white"/>
<path d="M11.7614 22H14.0421V24.6539H11.7914C11.5687 24.6539 11.3887 24.4738 11.3887 24.251V22.3728C11.3887 22.1674 11.5561 22 11.7614 22Z" fill="white"/>
<path d="M19.3516 24.239V22.078C19.3516 22.0449 19.3784 22.0164 19.4132 22.0164H21.945C21.9781 22.0164 22.0066 22.0433 22.0066 22.078V24.6103C22.0066 24.6434 21.9797 24.6719 21.945 24.6719H19.7843C19.5458 24.6719 19.3516 24.4776 19.3516 24.239Z" fill="white"/>
<path d="M23.2969 11.3984V14.0523C25.4954 14.0523 27.2786 15.8358 27.2786 18.0347C27.2786 20.2336 25.4954 22.0171 23.2969 22.0171V24.6709C26.9611 24.6709 29.932 21.6995 29.932 18.0347C29.932 14.3698 26.9611 11.3984 23.2969 11.3984Z" fill="white"/>
<path d="M6.0797 22.0093V19.7361C6.0797 19.5292 6.2487 19.3602 6.45561 19.3602H8.32563C8.54991 19.3602 8.73312 19.5434 8.73312 19.7677V22.0093C8.73312 22.0093 8.72996 22.0156 8.7268 22.0156H6.08444C6.08444 22.0156 6.07812 22.0125 6.07812 22.0093H6.0797Z" fill="white"/>
<path d="M8.73242 17.0522V19.0205C8.73242 19.2098 8.88587 19.3633 9.07515 19.3633H11.0431C11.2324 19.3633 11.3858 19.2098 11.3858 19.0205V17.0522C11.3858 16.8629 11.2324 16.7094 11.0431 16.7094H9.07515C8.88587 16.7094 8.73242 16.8629 8.73242 17.0522Z" fill="white"/>
<path d="M8.73296 18.0352C8.73296 18.0352 8.83878 19.3621 7.40625 19.3621L8.73296 20.689C8.73296 20.689 8.60819 19.3621 10.0597 19.3621L8.73296 18.0352Z" fill="white"/>
<path d="M14.0435 12.7422C14.0435 12.7422 14.1493 14.0691 12.7168 14.0691L14.0435 15.3961C14.0435 15.3961 13.9187 14.0691 15.3702 14.0691L14.0435 12.7422Z" fill="white"/>
<path d="M16.6958 20.6875C16.6958 20.6875 16.8017 22.0144 15.3691 22.0144L16.6958 23.3414C16.6958 23.3414 16.5711 22.0144 18.0226 22.0144L16.6958 20.6875Z" fill="white"/>
<path d="M21.9693 12.7422C21.9693 12.7422 22.0751 14.0691 20.6426 14.0691L21.9693 15.3961C21.9693 15.3961 21.8445 14.0691 23.296 14.0691L21.9693 12.7422Z" fill="white"/>
<path d="M19.3521 12.7422C19.3521 12.7422 19.2463 14.0691 20.6788 14.0691L19.3521 15.3961C19.3521 15.3961 19.4769 14.0691 18.0254 14.0691L19.3521 12.7422Z" fill="white"/>
<path d="M14.0416 15.3828C14.0416 15.3828 13.9357 16.7097 15.3683 16.7097L14.0416 18.0367C14.0416 18.0367 14.1663 16.7097 12.7148 16.7097L14.0416 15.3828Z" fill="white"/>
<path d="M8.73296 15.3828C8.73296 15.3828 8.62714 16.7097 10.0597 16.7097L8.73296 18.0367C8.73296 18.0367 8.85773 16.7097 7.40625 16.7097L8.73296 15.3828Z" fill="white"/>
<path d="M16.6953 21.5164V20.3996C16.6953 19.8262 17.1597 19.3618 17.733 19.3618H19.3487V22.0156H17.1944C16.918 22.0156 16.6953 21.7913 16.6953 21.5164Z" fill="white"/>
<path d="M14.041 17.0648V19.0079C14.041 19.2042 14.2001 19.3633 14.3964 19.3633H16.3391C16.5353 19.3633 16.6944 19.2042 16.6944 19.0079V17.0648C16.6944 16.8685 16.5353 16.7094 16.3391 16.7094H14.3964C14.2001 16.7094 14.041 16.8685 14.041 17.0648Z" fill="white"/>
<path d="M16.6939 18.0352C16.6939 18.0352 16.5881 19.3621 18.0206 19.3621L16.6939 20.689C16.6939 20.689 16.8187 19.3621 15.3672 19.3621L16.6939 18.0352Z" fill="white"/>
<path d="M19.3516 22.0156V19.3618H21.9734C21.9908 19.3618 22.005 19.376 22.005 19.3934V22.0156H19.3516Z" fill="#0090FF"/>
<path d="M22.0059 17.0752V18.9897C22.0059 19.1939 22.1713 19.3594 22.3754 19.3594H24.2897C24.4938 19.3594 24.6593 19.1939 24.6593 18.9897V17.0752C24.6593 16.871 24.4938 16.7055 24.2897 16.7055H22.3754C22.1713 16.7055 22.0059 16.871 22.0059 17.0752Z" fill="#0090FF"/>
<path d="M22.0044 18.0352C22.0044 18.0352 22.1103 19.3621 20.6777 19.3621L22.0044 20.689C22.0044 20.689 21.8797 19.3621 23.3312 19.3621L22.0044 18.0352Z" fill="#0090FF"/>
<path d="M6.07812 14.0703V11.7624C6.07812 11.5713 6.23291 11.4149 6.4256 11.4149H8.38565C8.57676 11.4149 8.73312 11.5697 8.73312 11.7624V14.0703H6.0797H6.07812Z" fill="#D83273"/>
</svg>
